<svg width="39" height="36" viewBox="0 0 39 36" fill="none" xmlns="http://www.w3.org/2000/svg">
<path d="M38.9986 26.3832C38.9846 23.791 38.9846 21.1986 38.9145 18.6062C38.8864 17.4912 38.8022 16.3624 38.5496 15.2753C38.1426 13.5192 37.1881 12.0836 35.3776 11.4983C33.3846 10.8711 31.602 11.4564 29.9879 12.6969C29.9037 12.7526 29.8336 12.892 29.8336 12.9896C29.8196 14.216 29.8336 15.4286 29.8336 16.6411C30.423 16.5297 30.9564 16.3763 31.4897 16.3206C32.2056 16.2648 32.8793 16.4042 33.2863 17.0731C33.6933 17.7422 33.9599 18.4809 33.9599 19.2613C33.988 22.2439 33.988 25.2265 33.9599 28.2091C33.9459 29.5192 33.2442 30.3972 32.0231 30.8292C31.9248 30.871 31.7845 31.0104 31.7705 31.108C31.7705 32.5854 31.7845 34.0488 31.7845 35.5261C31.7845 35.7771 31.8827 35.8745 32.1635 35.8885C34.788 35.9164 37.4126 34.1185 38.325 31.6376C38.9286 29.9373 39.0127 28.1533 38.9986 26.3832ZM33.7214 5.25435C34.9986 5.11498 36.2898 4.96167 37.5671 4.83624C37.7777 4.80837 37.8899 4.76655 37.8899 4.52962C37.8899 3.05226 37.8899 1.56097 37.8899 0C35.7985 0.236934 33.7916 0.459931 31.7845 0.696864C29.4826 0.961673 27.237 1.25436 24.9352 1.49129C24.865 2.43903 24.7808 3.41464 24.7247 4.3763C24.6826 4.97561 24.6686 5.58885 24.6265 6.21603C25.9037 6.07666 27.1387 5.95122 28.3598 5.82579C30.1424 5.64459 31.9248 5.44947 33.7214 5.25435ZM28.6125 20.4459C28.6687 17.8955 28.7387 15.3589 28.8089 12.8084C28.8511 11.3589 28.9072 9.89547 28.9493 8.446C28.9634 8.01393 28.9493 7.58188 28.9493 7.13589C28.7387 7.13589 28.5985 7.13589 28.444 7.13589C27.3072 7.19164 26.1563 7.27527 25.0194 7.30314C24.6124 7.31708 24.5282 7.47039 24.5141 7.81881C24.5001 8.61324 24.458 9.4216 24.4299 10.216C24.3177 13.3659 24.1913 16.5297 24.079 19.6794C24.065 20.0975 24.079 20.5156 24.079 21.0174C25.5387 20.9757 26.9282 20.9199 28.3177 20.8781C28.6266 20.8641 28.6125 20.669 28.6125 20.4459ZM30.3949 30.7596C29.3002 30.6342 28.7387 29.5889 28.6966 28.5714C28.6546 27.3311 28.6266 26.0906 28.5985 24.8642C28.5985 24.5435 28.5142 24.432 28.1634 24.432C26.9423 24.4738 25.7212 24.5017 24.5001 24.5017C24.1773 24.5017 24.1071 24.6411 24.1211 24.9198C24.1492 25.7004 24.1352 26.4947 24.1492 27.2753C24.1913 28.4878 24.1492 29.7004 24.3317 30.885C24.5703 32.4042 25.3142 33.7422 26.6195 34.6342C27.7704 35.4146 29.1317 35.7213 30.6056 35.9024C30.6056 34.23 30.6056 32.6133 30.5915 30.9965C30.6336 30.9268 30.4932 30.7736 30.3949 30.7596ZM7.11024 27.9442C7.12428 27.4564 6.92779 27.3032 6.43654 27.2892C4.66809 27.2056 4.14877 26.662 4.10667 24.8919C4.0786 23.554 4.10667 22.216 4.0786 20.8641C4.06456 20.2927 4.00843 19.7213 3.96632 19.1498H0.0364019C0.0364019 21.2265 -0.061846 23.2335 0.0644727 25.2265C0.331146 29.31 2.52066 31.6098 6.38041 32.0697C6.92779 32.1394 7.12428 31.9861 7.11024 31.4425C7.0962 30.2718 7.0962 29.115 7.11024 27.9442ZM0.0223664 17.6028H3.98035C3.98035 16.4321 3.96632 15.3171 3.98035 14.216C4.02245 11.9442 4.66809 11.2335 6.92779 10.9686C6.96989 10.9686 7.012 10.9129 7.0962 10.8571V7.13589C4.41544 6.82926 1.46801 8.7108 0.49957 11.3031C-0.272376 13.3659 0.13465 15.4844 0.0223664 17.6028ZM7.93833 36H12.4156V2.68989C10.8717 2.85714 9.41205 3.01045 7.93833 3.16376V36ZM16.2894 12.8223C16.3035 13.6585 16.3035 14.4948 16.3035 15.331C16.3035 15.9025 16.3035 16.46 16.3035 17.0175H20.8087C20.8087 15.094 20.893 13.2683 20.7808 11.4564C20.6825 9.83973 19.8965 8.51568 18.4929 7.60976C17.0473 6.68989 15.4332 6.55052 13.777 6.68989C13.6227 6.70383 13.37 6.94076 13.37 7.09408C13.3419 8.27874 13.356 9.46341 13.356 10.676C13.7068 10.6899 13.9595 10.7038 14.1981 10.7178C15.7139 10.7735 16.2613 11.331 16.2894 12.8223ZM20.8509 18.6062C19.5457 18.6062 18.3246 18.6341 17.1035 18.5923C16.542 18.5784 16.3456 18.7735 16.3596 19.345C16.3737 20.9337 16.3315 22.5366 16.3315 24.1254C16.3315 26.1603 15.5456 27.2614 13.5946 27.4564C13.5244 27.4564 13.4683 27.5261 13.4121 27.554V31.7213C17.2718 31.9303 19.728 29.8954 20.514 26.9407C21.2438 24.1951 20.6825 21.4077 20.8509 18.6062Z" fill="url(#paint0_linear_434_1324)"/>
<defs>
<linearGradient id="paint0_linear_434_1324" x1="2.42228" y1="18.0024" x2="39.2814" y2="18.0024" gradientUnits="userSpaceOnUse">
<stop offset="0.0343547" stop-color="#273580"/>
<stop offset="0.2149" stop-color="#46317C"/>
<stop offset="0.6071" stop-color="#942673"/>
<stop offset="0.8615" stop-color="#CA1E6D"/>
</linearGradient>
</defs>
</svg>
