<svg width="26" height="15" viewBox="0 0 26 15" fill="none" xmlns="http://www.w3.org/2000/svg">
<path fill-rule="evenodd" clip-rule="evenodd" d="M14.2557 14.8757C14.2557 14.8757 14.7177 14.8253 14.9543 14.5758C15.1709 14.3472 15.1634 13.9158 15.1634 13.9158C15.1634 13.9158 15.1346 11.9014 16.0875 11.6039C17.0265 11.3114 18.2323 13.552 19.512 14.4136C20.4786 15.065 21.2123 14.9224 21.2123 14.9224L24.6318 14.8757C24.6318 14.8757 26.4198 14.7675 25.5721 13.3873C25.502 13.2742 25.0775 12.366 23.0304 10.5003C20.8855 8.54729 21.1735 8.86316 23.7553 5.48449C25.328 3.42705 25.9565 2.17096 25.7599 1.63386C25.5734 1.12012 24.4164 1.25654 24.4164 1.25654L20.5675 1.27989C20.5675 1.27989 20.282 1.24179 20.0704 1.36593C19.8638 1.4876 19.7298 1.77152 19.7298 1.77152C19.7298 1.77152 19.1213 3.36314 18.3087 4.71756C16.5946 7.57388 15.9097 7.72505 15.6292 7.54807C14.9769 7.13388 15.1396 5.88639 15.1396 5.00024C15.1396 2.23118 15.5679 1.0771 14.307 0.778439C13.8888 0.678886 13.5808 0.613746 12.5102 0.602685C11.1367 0.589165 9.97474 0.607601 9.31614 0.923468C8.8779 1.13364 8.53983 1.60313 8.74643 1.63017C9.00061 1.66336 9.57657 1.78258 9.88208 2.19062C10.2765 2.71789 10.2627 3.90024 10.2627 3.90024C10.2627 3.90024 10.4894 7.15969 9.73308 7.56405C9.21472 7.84181 8.50352 7.27522 6.97471 4.68314C6.19215 3.35577 5.60116 1.88828 5.60116 1.88828C5.60116 1.88828 5.48722 1.6142 5.28313 1.46671C5.03647 1.2885 4.69214 1.23319 4.69214 1.23319L1.03477 1.25654C1.03477 1.25654 0.485095 1.27129 0.283508 1.50604C0.104458 1.71375 0.269735 2.14515 0.269735 2.14515C0.269735 2.14515 3.13328 8.72182 6.37621 12.0366C9.34994 15.0748 12.7256 14.8757 12.7256 14.8757H14.2557Z" fill="white"/>
</svg>
