<svg width="60" height="60" viewBox="0 0 60 60" fill="none" xmlns="http://www.w3.org/2000/svg">
<path d="M32.2929 37.7071C32.6834 38.0976 33.3166 38.0976 33.7071 37.7071C34.0976 37.3166 34.0976 36.6834 33.7071 36.2929L32.2929 37.7071ZM26 30L25.2929 29.2929C24.9024 29.6834 24.9024 30.3166 25.2929 30.7071L26 30ZM33.7071 23.7071C34.0976 23.3166 34.0976 22.6834 33.7071 22.2929C33.3166 21.9024 32.6834 21.9024 32.2929 22.2929L33.7071 23.7071ZM33.7071 36.2929L26.7071 29.2929L25.2929 30.7071L32.2929 37.7071L33.7071 36.2929ZM26.7071 30.7071L33.7071 23.7071L32.2929 22.2929L25.2929 29.2929L26.7071 30.7071Z" fill="black"/>
</svg>
