<svg width="60" height="60" viewBox="0 0 60 60" fill="none" xmlns="http://www.w3.org/2000/svg">
<path d="M27.7071 22.2929C27.3166 21.9024 26.6834 21.9024 26.2929 22.2929C25.9024 22.6834 25.9024 23.3166 26.2929 23.7071L27.7071 22.2929ZM34 30L34.7071 30.7071C35.0976 30.3166 35.0976 29.6834 34.7071 29.2929L34 30ZM26.2929 36.2929C25.9024 36.6834 25.9024 37.3166 26.2929 37.7071C26.6834 38.0976 27.3166 38.0976 27.7071 37.7071L26.2929 36.2929ZM26.2929 23.7071L33.2929 30.7071L34.7071 29.2929L27.7071 22.2929L26.2929 23.7071ZM33.2929 29.2929L26.2929 36.2929L27.7071 37.7071L34.7071 30.7071L33.2929 29.2929Z" fill="black"/>
</svg>
