<svg width="90" height="34" viewBox="0 0 90 34" fill="none" xmlns="http://www.w3.org/2000/svg">
<g clip-path="url(#clip0_361_1502)">
<path d="M0.00115414 9.01307C1.07644 7.03401 1.29139 5.80896 2.04424 5.43192C4.84052 4.01801 7.63674 2.41564 10.7558 1.66132C19.0373 -0.60148 27.4268 -0.319993 35.8165 1.18653C50.1219 3.72876 62.8145 9.38091 74.8619 16.4467C76.1526 17.2004 77.4434 17.8598 78.8418 18.6135C78.9493 18.6135 79.1645 18.5192 79.4871 18.3307C78.8415 16.2576 78.1958 14.0904 77.6577 12.0173C77.4424 10.8866 77.4422 9.56727 77.8723 8.4364C78.0873 7.77674 79.2703 6.83425 80.0232 6.83414C80.9912 6.834 82.1744 7.49345 83.035 8.05873C83.5728 8.52982 83.6805 9.37791 83.8957 10.1318C85.5099 15.7855 87.3392 21.4393 88.8458 27.1873C90.1372 32.0872 88.309 33.6894 82.8235 33.4075C77.123 33.1257 71.4224 33.0323 65.8295 32.8446C64.1085 32.7506 62.28 32.4682 60.344 32.28C62.387 28.3219 62.387 28.3219 79.811 26.9059C72.2811 20.9703 64.1063 17.0136 55.7163 13.3398C47.3263 9.66587 38.5063 7.21708 29.1486 5.89916C19.4683 4.5813 10.3262 6.18457 0.00115414 9.01307Z" fill="#F70000"/>
</g>
<defs>
<clipPath id="clip0_361_1502">
<rect width="33.4378" height="89.238" fill="white" transform="translate(89.2378) rotate(89.9917)"/>
</clipPath>
</defs>
</svg>
