<svg width="66" height="66" viewBox="0 0 66 66" fill="none" xmlns="http://www.w3.org/2000/svg">
<path fill-rule="evenodd" clip-rule="evenodd" d="M0 33C0 14.7746 14.7746 0 33 0C51.2254 0 66 14.7746 66 33C66 51.2254 51.2254 66 33 66C14.7746 66 0 51.2254 0 33ZM34.7257 43.8296C34.7257 43.8296 35.361 43.7603 35.6864 43.4172C35.9842 43.1029 35.9739 42.5097 35.9739 42.5097C35.9739 42.5097 35.9343 39.7399 37.2445 39.331C38.5357 38.9287 40.1936 42.0095 41.9531 43.1942C43.2822 44.0898 44.2911 43.8938 44.2911 43.8938L48.9929 43.8296C48.9929 43.8296 51.4514 43.6809 50.2858 41.7831C50.1894 41.6276 49.6058 40.3787 46.7909 37.8134C43.8418 35.128 44.2377 35.5624 47.7878 30.9167C49.9501 28.0877 50.8144 26.3606 50.5441 25.6221C50.2876 24.9157 48.6968 25.1033 48.6968 25.1033L43.4045 25.1354C43.4045 25.1354 43.0119 25.083 42.721 25.2537C42.4369 25.421 42.2527 25.8114 42.2527 25.8114C42.2527 25.8114 41.416 27.9998 40.2986 29.8622C37.9417 33.7896 37 33.9975 36.6144 33.7541C35.7174 33.1846 35.9412 31.4693 35.9412 30.2509C35.9412 26.4434 36.53 24.8565 34.7963 24.4459C34.2213 24.309 33.7978 24.2194 32.3258 24.2042C30.4371 24.1856 28.8395 24.211 27.9339 24.6453C27.3313 24.9343 26.8665 25.5798 27.1505 25.617C27.5 25.6626 28.292 25.8266 28.7121 26.3876C29.2544 27.1126 29.2354 28.7383 29.2354 28.7383C29.2354 28.7383 29.5471 33.2201 28.5072 33.7761C27.7944 34.158 26.8165 33.3789 24.7144 29.8148C23.6384 27.9897 22.8258 25.9719 22.8258 25.9719C22.8258 25.9719 22.6691 25.595 22.3885 25.3922C22.0493 25.1472 21.5759 25.0712 21.5759 25.0712L16.547 25.1033C16.547 25.1033 15.7912 25.1235 15.514 25.4463C15.2678 25.7319 15.4951 26.3251 15.4951 26.3251C15.4951 26.3251 19.4325 35.368 23.8915 39.9258C27.9804 44.1034 32.6219 43.8296 32.6219 43.8296H34.7257Z" fill="#3E95F8"/>
</svg>
